<svg xmlns="http://www.w3.org/2000/svg" xmlns:xlink="http://www.w3.org/1999/xlink" width="1109px" height="290px" viewBox="0 0 1109.0791770113156 290.03845282850716">
    <g style="" id="29f76f7d-ed70-4ecd-bc1a-62f2f9c6a281">
<g style=""><path d="M-117.22931 -27.04314Q-120.94601 -29.58138 -125.59189 -29.58138Q-130.23777 -29.58138 -133.18393 -27.15646Q-136.13010 -24.73154 -136.13010 -20.35761Q-136.13010 -15.98369 -131.73351 -12.62959Q-129.10463 -10.58994 -120.99134 -7.09987Q-112.87805 -3.60979 -109.70526 -0.66363Q-103.63162 4.95675 -103.63162 11.03039L-103.63162 12.66211Q-103.63162 20.18617 -109.61461 24.90003Q-112.37947 27.07566 -116.50410 28.36744Q-120.62873 29.65922 -124.75337 29.65922L-126.43042 29.65922Q-135.76750 29.65922 -142.79297 26.84903Q-145.96576 25.57992 -145.96576 19.91421L-145.96576 18.32782Q-145.96576 11.61962 -143.65416 11.61962Q-142.06776 11.61962 -139.34822 15.92556Q-136.62868 20.23149 -133.07062 22.40712Q-129.51256 24.58275 -124.48141 24.58275Q-119.45027 24.58275 -116.36812 21.93120Q-113.28598 19.27965 -113.28598 15.38165Q-113.28598 10.03322 -118.27180 6.36185Q-120.40211 4.82078 -128.96865 0.85478Q-137.53520 -3.11121 -140.84397 -6.55596Q-145.37653 -11.26982 -145.37653 -18.06867Q-145.37653 -24.86751 -140.52669 -29.35475Q-137.85247 -31.84766 -133.86382 -33.23009Q-129.87516 -34.61252 -125.70520 -34.61252L-124.02816 -34.61252Q-122.30578 -34.61252 -119.13299 -34.02329L-117.54659 -33.70601Q-114.73640 -33.16210 -114.50977 -33.11678L-113.10468 -33.02613L-111.74491 -32.98080Q-109.84123 -32.84482 -109.07070 -32.52755Q-106.39649 -31.43973 -106.39649 -24.95816Q-106.39649 -18.47660 -108.93472 -18.47660Q-110.20384 -18.47660 -112.74207 -22.10265Q-115.28031 -25.72870 -117.22931 -27.04314Z" fill="rgb(127,119,136)" fill-opacity="1.00" transform="matrix(2.765052 0 0 2.765052 554.539589 145.019226) translate(0 0)"></path><path d="M-95.71233 5.81794L-95.71233 7.49499Q-95.71233 15.20035 -92.72084 20.27682Q-91.31574 22.67908 -89.14011 24.08417Q-86.96448 25.48927 -84.74352 25.48927L-83.83701 25.48927Q-79.71238 25.48927 -76.69822 21.47795Q-73.68407 17.46663 -73.68407 10.07855L-73.68407 6.86043Q-73.68407 -0.43700 -76.69822 -5.53613Q-79.71238 -10.63526 -84.33559 -10.63526L-85.74069 -10.63526Q-89.91065 -10.63526 -92.81149 -6.14803Q-95.71233 -1.66079 -95.71233 5.81794ZM-62.76059 5.99924L-62.76059 8.26552Q-62.76059 11.84625 -64.21101 16.10686Q-67.24783 24.99068 -76.31296 28.52608Q-80.25629 30.06715 -83.92766 30.06715L-85.42341 30.06715Q-94.08060 30.06715 -99.88229 24.26547Q-102.51117 21.63659 -104.14289 17.33065Q-105.77462 13.02472 -105.77462 8.17487L-105.77462 7.40434Q-105.77462 3.00775 -104.23355 -1.47949Q-101.24205 -10.22733 -92.49421 -13.62676Q-88.55088 -15.16783 -84.92483 -15.16783L-82.65854 -15.16783Q-78.62456 -15.16783 -74.72656 -13.35480Q-67.33848 -9.91005 -64.43764 -2.38600Q-62.76059 2.05591 -62.76059 5.99924Z" fill="rgb(127,119,136)" fill-opacity="1.00" transform="matrix(2.765052 0 0 2.765052 554.539589 145.019226) translate(0 0)"></path><path d="M-65.26619 27.57424Q-65.26619 26.62241 -63.20388 25.12666Q-61.14156 23.63091 -60.41635 20.43546Q-59.69114 17.24000 -59.69114 -3.83642Q-59.69114 -24.91284 -60.16706 -27.72303Q-60.64298 -30.53322 -62.50133 -31.75701Q-65.49282 -33.70601 -65.49282 -34.15927L-65.49282 -34.70318Q-65.49282 -35.47371 -64.17838 -36.06294Q-60.09907 -37.83064 -53.30023 -37.83064L-52.39371 -37.83064Q-50.08211 -37.83064 -49.71950 -34.70318Q-49.67417 -34.29525 -49.67417 -27.85901L-49.67417 -18.11399L-49.71950 -16.25564L-49.71950 -13.40013L-49.76483 -11.54178Q-49.76483 -11.54178 -49.76483 2.82645Q-49.76483 16.24284 -49.33423 19.43829Q-48.90364 22.63375 -47.31724 24.08417Q-47.13594 24.22015 -45.41357 25.26264Q-43.69119 26.30513 -43.69119 27.39294Q-43.69119 28.97934 -49.31157 28.97934L-51.16992 29.06999L-53.02827 29.06999L-60.46168 29.20597L-61.41351 29.20597Q-65.26619 29.20597 -65.26619 27.57424Z" fill="rgb(127,119,136)" fill-opacity="1.00" transform="matrix(2.765052 0 0 2.765052 554.539589 145.019226) translate(0 0)"></path><path d="M-2.60622 -34.43122L-1.06515 -34.43122Q2.10764 -34.43122 6.23227 -33.63802Q10.35691 -32.84482 12.71384 -32.70885Q15.07077 -32.57287 16.43054 -31.80234Q19.05943 -30.30659 19.05943 -24.05165Q19.05943 -17.79671 16.70250 -17.79671Q15.93196 -17.79671 12.89514 -21.26413Q9.85833 -24.73154 7.09346 -26.22728Q2.19829 -28.85617 -3.87534 -28.85617Q-7.36542 -28.85617 -10.90081 -26.95249Q-21.55234 -21.28679 -21.55234 -2.29535Q-21.50701 9.48932 -16.06794 16.74142Q-10.62886 23.99352 -0.92918 23.99352Q7.36542 23.99352 13.12177 18.50912Q16.70250 15.10970 17.69966 15.10970Q19.60334 15.10970 19.60334 17.87456Q19.60334 19.27965 17.83564 22.27115Q16.06794 25.26264 13.89231 26.48643Q7.77335 29.88585 -2.01699 29.88585L-3.60339 29.88585Q-9.08779 29.88585 -14.70817 27.89152Q-26.08490 23.85754 -30.66279 11.93690Q-33.01972 5.72729 -33.01972 -1.63813Q-33.01972 -9.00354 -30.66279 -15.16783Q-25.90360 -27.67770 -14.52687 -32.16494Q-8.77051 -34.43122 -2.60622 -34.43122Z" fill="rgb(127,119,136)" fill-opacity="1.00" transform="matrix(2.765052 0 0 2.765052 554.539589 145.019226) translate(0 0)"></path><path d="M31.46596 -8.36898Q31.46596 -3.51914 38.99002 14.65644Q40.03251 17.19467 40.66706 17.19467Q41.30162 17.19467 43.02400 13.52330Q49.27894 0.28821 49.27894 -6.46531Q49.27894 -8.41431 48.64438 -9.63810L48.14579 -10.45396Q47.05798 -11.90438 47.05798 -12.49362Q47.05798 -14.26132 52.81433 -14.26132L55.71517 -14.26132Q61.19958 -14.26132 61.19958 -12.17634Q61.19958 -10.99787 58.95596 -8.57295Q56.71234 -6.14803 55.71517 -3.88175Q54.71801 -1.61546 48.44041 15.04171Q42.16281 31.69888 38.71806 37.79517Q35.27331 43.89147 32.30449 46.56568Q29.33566 49.23990 26.20819 49.23990L25.02972 49.23990Q22.67279 49.23990 21.01840 47.90279Q19.36402 46.56568 19.36402 45.13793Q19.36402 43.71017 20.51982 42.82632Q21.67562 41.94247 23.57930 41.94247L24.62179 42.03312Q25.30168 42.07845 26.70677 42.07845Q29.87956 42.07845 32.55378 37.99914Q35.22799 33.91983 35.22799 29.74987Q35.22799 25.57992 22.31018 -1.75144Q21.13172 -4.24435 18.84277 -6.91856Q16.55383 -9.59278 16.55383 -10.63526Q16.55383 -12.35764 18.95609 -13.06019Q21.35834 -13.76273 26.68411 -13.76273Q32.00987 -13.76273 32.00987 -11.45113Q31.46596 -9.09419 31.46596 -8.36898Z" fill="rgb(127,119,136)" fill-opacity="1.00" transform="matrix(2.765052 0 0 2.765052 554.539589 145.019226) translate(0 0)"></path><path d="M89.92334 -1.93274Q88.01966 -1.93274 84.64290 -5.87607Q81.26614 -9.81940 76.84689 -9.81940Q72.42764 -9.81940 69.43615 -5.44548Q66.44466 -1.07156 66.44466 6.95108Q66.44466 14.97372 70.13870 19.48362Q73.83274 23.99352 79.77040 23.99352Q83.03384 23.99352 85.23213 23.17766Q87.43043 22.36180 89.31144 21.43262Q91.19245 20.50345 91.96299 20.50345Q93.27743 20.50345 93.27743 22.22582Q93.27743 24.85471 87.97433 27.43827Q82.67124 30.02183 77.68542 30.02183Q67.98573 30.02183 62.09340 23.94819Q59.69114 21.45528 58.05942 17.53462Q56.42769 13.61395 56.42769 9.12671L56.42769 6.90576Q56.42769 6.81510 56.42769 6.67913Q56.42769 6.58848 56.42769 6.49782Q56.42769 2.55449 58.19539 -1.66079Q61.68547 -9.91005 69.43615 -13.08285Q73.92339 -14.89587 78.36530 -14.89587L79.40779 -14.89587Q85.52675 -14.89587 89.78736 -12.76557Q93.23211 -11.04320 93.23211 -7.00921Q93.23211 -4.33500 92.16696 -3.13387Q91.10180 -1.93274 89.92334 -1.93274Z" fill="rgb(127,119,136)" fill-opacity="1.00" transform="matrix(2.765052 0 0 2.765052 554.539589 145.019226) translate(0 0)"></path><path d="M90.72651 27.57424Q90.72651 26.62241 92.78882 25.12666Q94.85114 23.63091 95.57635 20.43546Q96.30156 17.24000 96.30156 -3.83642Q96.30156 -24.91284 95.82564 -27.72303Q95.34972 -30.53322 93.49137 -31.75701Q90.49988 -33.70601 90.49988 -34.15927L90.49988 -34.70318Q90.49988 -35.47371 91.81432 -36.06294Q95.89363 -37.83064 102.69247 -37.83064L103.59899 -37.83064Q105.91059 -37.83064 106.27320 -34.70318Q106.31853 -34.29525 106.31853 -27.85901L106.31853 -18.11399L106.27320 -16.25564L106.27320 -13.40013L106.22787 -11.54178Q106.22787 -11.54178 106.22787 2.82645Q106.22787 16.24284 106.65847 19.43829Q107.08906 22.63375 108.67546 24.08417Q108.85676 24.22015 110.57913 25.26264Q112.30151 26.30513 112.30151 27.39294Q112.30151 28.97934 106.68113 28.97934L104.82278 29.06999L102.96443 29.06999L95.53102 29.20597L94.57919 29.20597Q90.72651 29.20597 90.72651 27.57424Z" fill="rgb(127,119,136)" fill-opacity="1.00" transform="matrix(2.765052 0 0 2.765052 554.539589 145.019226) translate(0 0)"></path><path d="M137.62585 -0.30102L137.62585 -1.70611Q137.62585 -5.06021 135.22359 -7.75709Q132.82133 -10.45396 129.33126 -10.45396L128.47007 -10.45396Q127.83551 -10.36331 127.60888 -10.36331Q124.43609 -10.36331 121.60324 -6.73726Q118.77038 -3.11121 118.77038 1.01342L118.77038 1.60266Q118.77038 3.05308 120.49276 3.05308Q121.17264 3.18905 121.21797 3.18905L122.26046 3.23438L122.53241 3.23438L122.84969 3.18905L131.59754 2.69047L133.22926 2.50917Q137.62585 2.50917 137.62585 -0.30102ZM118.77038 11.71027Q118.77038 16.87739 122.66839 20.36747Q126.56639 23.85754 132.54938 23.85754Q134.95163 23.85754 136.92330 23.15500Q138.89496 22.45245 141.22923 21.45528Q143.56350 20.45812 144.15274 20.45812Q145.96576 20.45812 145.96576 22.40712Q145.96576 25.03601 139.25757 28.02750Q134.90631 29.97650 129.92049 29.97650L128.92332 29.97650Q120.40211 29.97650 114.78173 24.80938Q111.74491 21.99919 110.06786 17.62527Q108.39081 13.25134 108.39081 8.22020L108.43614 7.17771L108.43614 6.13522Q108.43614 1.78396 110.43047 -2.43132Q112.47012 -6.64661 115.28031 -9.36615Q121.21797 -15.07718 129.37658 -15.12250Q141.70515 -15.12250 145.78446 -5.51347Q147.05358 -2.47665 147.05358 0.06158L147.05358 0.96810Q147.05358 4.09557 144.47002 5.16072Q141.88646 6.22587 132.27742 6.90576Q122.66839 7.58564 121.85253 7.81227Q118.77038 8.58280 118.77038 11.71027Z" fill="rgb(127,119,136)" fill-opacity="1.00" transform="matrix(2.765052 0 0 2.765052 554.539589 145.019226) translate(0 0)"></path></g></g>

  </svg>